<svg id="Layer_1" data-name="Layer 1" xmlns="http://www.w3.org/2000/svg" viewBox="0 0 30 30.36"><defs><style>.cls-1{fill:#f06;}</style></defs><title>What etc.</title><path class="cls-1" d="M27,0H3A3,3,0,0,0,0,3V27.32a3,3,0,0,0,3,3H27a3,3,0,0,0,3-3V3A3,3,0,0,0,27,0ZM9.63,24h-4V11h4ZM7.58,9.44a2,2,0,1,1,0-4,2,2,0,1,1,0,4ZM24.36,24h-4v-7.2c0-1.67-.59-2.81-2-2.81a2.22,2.22,0,0,0-2.07,1.51,2.85,2.85,0,0,0-.13,1V24H12V15.18c0-1.62,0-3-.1-4.15h3.5l.19,1.81h.08a4.66,4.66,0,0,1,4-2.1c2.65,0,4.64,1.78,4.64,5.6Z"/></svg>