<?xml version="1.0" encoding="UTF-8"?>
<svg width="48px" height="42px" viewBox="0 0 48 42" version="1.1" xmlns="http://www.w3.org/2000/svg" xmlns:xlink="http://www.w3.org/1999/xlink">
    <!-- Generator: Sketch 55.2 (78181) - https://sketchapp.com -->
    <title>Fill 10</title>
    <desc>Created with Sketch.</desc>
    <g id="Symbols" stroke="none" stroke-width="1" fill="none" fill-rule="evenodd">
        <g id="--Desktop-Footer" transform="translate(-699.000000, -39.000000)" fill="#FF0066">
            <path d="M739.742205,74.7886667 L732.785519,74.7886667 L732.785519,65.0411667 C732.785519,62.7171667 732.739906,59.727 729.169033,59.727 C725.548637,59.727 724.996064,62.2598333 724.996064,64.8755 L724.996064,74.7886667 L718.045895,74.7886667 L718.045895,54.7453333 L724.715868,54.7453333 L724.715868,57.4858333 L724.811004,57.4858333 C725.73891,55.9096667 728.010454,54.2483333 731.396267,54.2483333 C738.44027,54.2483333 739.742205,58.3981667 739.742205,63.7963333 L739.742205,74.7886667 Z M710.199097,52.0071667 C707.964043,52.0071667 706.162968,50.389 706.162968,48.394 C706.162968,46.4001667 707.964043,44.782 710.199097,44.782 C712.425028,44.782 714.232619,46.4001667 714.232619,48.394 C714.232619,50.389 712.425028,52.0071667 710.199097,52.0071667 Z M706.715541,74.7886667 L713.680046,74.7886667 L713.680046,54.7453333 L706.715541,54.7453333 L706.715541,74.7886667 Z M743.207516,39 L703.224166,39 C701.314922,39 699.762765,40.3556667 699.762765,42.0286667 L699.762765,77.969 C699.762765,79.642 701.314922,81 703.224166,81 L743.207516,81 C745.121973,81 746.678039,79.642 746.678039,77.969 L746.678039,42.0286667 C746.678039,40.3556667 745.121973,39 743.207516,39 L743.207516,39 Z" id="Fill-10"></path>
        </g>
    </g>
</svg>