<?xml version="1.0" encoding="UTF-8"?>
<svg width="220px" height="32px" viewBox="0 0 220 32" version="1.1" xmlns="http://www.w3.org/2000/svg" xmlns:xlink="http://www.w3.org/1999/xlink">
    <!-- Generator: Sketch 54.1 (76490) - https://sketchapp.com -->
    <title>- Desktop Navigation</title>
    <desc>Created with Sketch.</desc>
    <defs>
        <polygon id="path-1" points="0.241569767 0.41433871 27.4319767 0.41433871 27.4319767 30.9677419 0.241569767 30.9677419"></polygon>
    </defs>
    <g id="Page-1" stroke="none" stroke-width="1" fill="none" fill-rule="evenodd">
        <g id="--Homepage-(desktop)" transform="translate(-610.000000, -108.000000)">
            <g id="--Desktop-Navigation" transform="translate(610.000000, 108.000000)">
                <g id="--Logo">
                    <path d="M63.7785811,12.4440967 C63.7785811,10.4229032 63.5014442,8.70245103 62.7538527,7.11812887 C60.7329818,2.77548351 56.4964687,1 51.401897,1 C49.1867395,1 46.9991987,1.38232271 45.2544956,2.14696814 C41.0460839,3.97700022 38.7199747,7.74616151 38.470939,10.2592575 L44.5902391,11.6249027 C45.0883104,8.7569996 47.5253713,6.68125759 51.2076105,6.68125759 C55.1950879,6.68125759 57.1612098,8.86609673 57.1612098,11.2420972 C57.1612098,12.6898066 56.385517,13.7551932 54.3365447,13.7551932 L50.5985875,13.7551932 C45.3102137,13.7551932 38,15.9400324 38,22.877838 L38,23.2056121 C38,28.3674515 42.2922311,32 48.2172447,32 C51.0414252,32 54.8903341,31.0166776 57.1054917,27.3841291 C57.1054917,28.4495157 57.2164434,30.7439347 57.3826286,31.4810645 L64,31.4810645 C63.8338147,30.0883864 63.7785811,28.5040643 63.7785811,26.6740322 L63.7785811,12.4440967 Z M57.1054917,19.3814195 C57.1054917,23.8881933 54.1703595,26.6740322 49.5743436,26.6740322 C46.7220618,26.6740322 44.7564244,25.0351615 44.7564244,22.6046124 C44.7564244,19.7912579 48.0234426,18.4256128 50.5709707,18.4256128 L57.1054917,18.4256128 L57.1054917,19.3814195 Z" id="Fill-1" fill="#FEFEFE"></path>
                    <polygon id="Fill-3" fill="#FEFEFE" points="89.9344277 1 81.109678 23.2048123 72.2575088 1 65 1 77.7010012 31 84.4086768 31 97 1"></polygon>
                    <g id="Group-13" transform="translate(95.000000, 0.000000)">
                        <path d="M15.386531,0.268645161 C6.60939922,0.268645161 0.157848837,7.3046129 0.157848837,15.8192903 C0.157848837,24.6896129 7.10746124,31.3694516 16.0231589,31.3694516 C22.0318798,31.3694516 27.9572674,28.056871 29.6738372,22.3075161 L23.9698643,20.5825161 C22.7513566,24.1965484 19.5953488,25.6200968 15.9403101,25.6200968 C11.4824612,25.6200968 7.21841085,22.3897742 7.05222868,17.7900968 L30.0614341,17.7900968 C30.1442829,17.1059032 30.1718992,16.4212258 30.1718992,15.7370323 C30.1718992,6.72977419 24.8283915,0.268645161 15.386531,0.268645161 L15.386531,0.268645161 Z M7.4122093,12.7800968 C8.02170543,8.67348387 11.2886628,5.99041935 15.4417636,5.99041935 C19.6229651,5.99041935 23.0837209,8.48187097 23.3056202,12.7800968 L7.4122093,12.7800968 Z" id="Fill-4" fill="#FEFEFE"></path>
                        <path d="M48.9349322,0.268645161 C46.5536337,0.268645161 42.5943314,1.06267742 39.6868702,4.923 L39.6868702,0.89816129 L33.0972384,0.89816129 L33.0972384,30.8217097 L39.8530523,30.8217097 L39.8530523,14.1489677 C39.8530523,9.63154839 42.5662306,6.59283871 46.8583818,6.59283871 C51.5100291,6.59283871 53.5313469,9.79606452 53.5313469,14.0667097 L53.5313469,30.8217097 L60.2871609,30.8217097 L60.2871609,12.396871 C60.2871609,5.58009677 56.6321221,0.268645161 48.9349322,0.268645161" id="Fill-6" fill="#FEFEFE"></path>
                        <g id="Group-10" transform="translate(64.437984, 0.483871)">
                            <mask id="mask-2" fill="white">
                                <use xlink:href="#path-1"></use>
                            </mask>
                            <g id="Clip-9"></g>
                            <path d="M20.6756783,17.0599839 C20.6756783,21.5774032 17.9625,24.6436935 13.6708333,24.6436935 C9.01870155,24.6436935 6.99786822,21.4128871 6.99786822,17.1693387 L6.99786822,0.41433871 L0.241569767,0.41433871 L0.241569767,18.8120806 C0.241569767,25.6017581 4.00707364,30.9678871 11.5937984,30.9678871 C13.9750969,30.9678871 17.9348837,30.1738548 20.8418605,26.3135323 L20.8418605,30.3378871 L27.4319767,30.3378871 L27.4319767,0.41433871 L20.6756783,0.41433871 L20.6756783,17.0599839 Z" id="Fill-8" fill="#FEFEFE" mask="url(#mask-2)"></path>
                        </g>
                        <path d="M110.134157,0.268645161 C101.357025,0.268645161 94.9054748,7.3046129 94.9054748,15.8192903 C94.9054748,24.6896129 101.855087,31.3694516 110.770785,31.3694516 C116.779506,31.3694516 122.704409,28.056871 124.421463,22.3075161 L118.71749,20.5825161 C117.499467,24.1965484 114.342975,25.6200968 110.687936,25.6200968 C106.230087,25.6200968 101.966037,22.3897742 101.799855,17.7900968 L124.80906,17.7900968 C124.891909,17.1059032 124.919525,16.4212258 124.919525,15.7370323 C124.919525,6.72977419 119.576017,0.268645161 110.134157,0.268645161 L110.134157,0.268645161 Z M102.159835,12.7800968 C102.768847,8.67348387 106.036289,5.99041935 110.18939,5.99041935 C114.370591,5.99041935 117.831347,8.48187097 118.053246,12.7800968 L102.159835,12.7800968 Z" id="Fill-11" fill="#FEFEFE"></path>
                    </g>
                    <polygon id="Fill-14" fill="#FFFFFF" points="9.55684989 1 21.9225318 13.1555728 0 13.1555728 0 18.8444272 21.9225318 18.8444272 9.55684989 31 17.7407096 31 33 16 17.7407096 1"></polygon>
                </g>
            </g>
        </g>
    </g>
</svg>