<?xml version="1.0" encoding="UTF-8"?>
<svg width="218px" height="35px" viewBox="0 0 218 35" version="1.1" xmlns="http://www.w3.org/2000/svg" xmlns:xlink="http://www.w3.org/1999/xlink">
    <!-- Generator: Sketch 55.2 (78181) - https://sketchapp.com -->
    <title>- Avenue Logo</title>
    <desc>Created with Sketch.</desc>
    <defs>
        <polygon id="path-1" points="0.237704651 0.448938275 26.9930651 0.448938275 26.9930651 33.553719 0.237704651 33.553719"></polygon>
    </defs>
    <g id="Page-1" stroke="none" stroke-width="1" fill="none" fill-rule="evenodd">
        <g id="--Businesses-(dekstop)" transform="translate(-972.000000, -104.000000)">
            <g id="--Avenue-Logo" transform="translate(972.000000, 104.000000)">
                <path d="M62.7870973,12.1824255 C62.7870973,10.0308325 62.5206194,8.19938335 61.8017815,6.51284687 C59.8586363,1.89003083 55.7850661,0 50.8864394,0 C48.7564803,0 46.6530757,0.406988695 44.9754766,1.22096608 C40.9289268,3.16906475 38.6922833,7.18139774 38.452826,9.85662898 L44.3367684,11.3103803 C44.8156831,8.25745118 47.1590109,6.04779034 50.6996254,6.04779034 C54.5337383,6.04779034 56.4242402,8.37358684 56.4242402,10.9028777 C56.4242402,12.4439877 55.6783818,13.5781089 53.7082161,13.5781089 L50.1140264,13.5781089 C45.0290517,13.5781089 38,15.9039054 38,23.2893114 L38,23.6382323 C38,29.1330935 42.1271453,33 47.8242737,33 C50.5398319,33 54.2407059,31.9532374 56.3706651,28.0863309 C56.3706651,29.2204522 56.4773494,31.6628983 56.6371429,32.4475848 L63,32.4475848 C62.8402065,30.9650565 62.7870973,29.27852 62.7870973,27.3304214 L62.7870973,12.1824255 Z M56.3706651,19.5673176 C56.3706651,24.364851 53.5484226,27.3304214 49.1291765,27.3304214 C46.3865978,27.3304214 44.4965619,25.5858171 44.4965619,22.9984584 C44.4965619,20.0035971 47.6379256,18.5498458 50.0874718,18.5498458 L56.3706651,18.5498458 L56.3706651,19.5673176 Z" id="Fill-1" fill="#FEFEFE"></path>
                <polygon id="Fill-3" fill="#FEFEFE" points="89.376026 2 81.1028231 26.4252935 72.8039145 2 66 2 77.9071886 35 84.1956345 35 96 2"></polygon>
                <g id="Group-13" transform="translate(95.000000, 0.000000)">
                    <path d="M15.1403465,0.291078512 C6.50364884,0.291078512 0.155323256,7.91458833 0.155323256,17.1402882 C0.155323256,26.7513316 6.99374186,33.9889737 15.7667884,33.9889737 C21.6793698,33.9889737 27.5099512,30.3997743 29.1990558,24.1703166 L23.5863465,22.3012696 C22.3873349,26.2170935 19.2818233,27.759516 15.6852651,27.759516 C11.2987419,27.759516 7.10291628,24.2594437 6.93939302,19.2756679 L29.5804512,19.2756679 C29.6619744,18.5343404 29.6891488,17.7924886 29.6891488,17.0511612 C29.6891488,7.29174742 24.4311372,0.291078512 15.1403465,0.291078512 L15.1403465,0.291078512 Z M7.29361395,13.8473053 C7.89335814,9.39776756 11.1080442,6.49065238 15.1946953,6.49065238 C19.3089977,6.49065238 22.7143814,9.19015393 22.9327302,13.8473053 L7.29361395,13.8473053 Z" id="Fill-4" fill="#FEFEFE"></path>
                    <path d="M48.1519733,0.291078512 C45.8087756,0.291078512 41.9128221,1.15141684 39.0518802,5.33409762 L39.0518802,0.973162707 L32.5676826,0.973162707 L32.5676826,33.3954923 L39.2154035,33.3954923 L39.2154035,15.3304845 C39.2154035,10.4358357 41.8851709,7.14337707 46.1086477,7.14337707 C50.6858686,7.14337707 52.6748453,10.6140899 52.6748453,15.2413574 L52.6748453,33.3954923 L59.3225663,33.3954923 L59.3225663,13.432078 C59.3225663,6.0460656 55.7260081,0.291078512 48.1519733,0.291078512" id="Fill-6" fill="#FEFEFE"></path>
                    <g id="Group-10" transform="translate(63.406977, 0.524277)">
                        <mask id="mask-2" fill="white">
                            <use xlink:href="#path-1"></use>
                        </mask>
                        <g id="Clip-9"></g>
                        <path d="M20.3448674,18.4845865 C20.3448674,23.3792353 17.6751,26.7015777 13.4521,26.7015777 C8.87440233,26.7015777 6.88590233,23.2009811 6.88590233,18.6030731 L6.88590233,0.448938275 L0.237704651,0.448938275 L0.237704651,20.382993 C0.237704651,27.7396459 3.94296047,33.5538763 11.4082977,33.5538763 C13.7514953,33.5538763 17.6479256,32.693538 20.5083907,28.5108572 L20.5083907,32.8712678 L26.9930651,32.8712678 L26.9930651,0.448938275 L20.3448674,0.448938275 L20.3448674,18.4845865 Z" id="Fill-8" fill="#FEFEFE" mask="url(#mask-2)"></path>
                    </g>
                    <path d="M108.37201,0.291078512 C99.7353128,0.291078512 93.3869872,7.91458833 93.3869872,17.1402882 C93.3869872,26.7513316 100.225406,33.9889737 108.998452,33.9889737 C114.911034,33.9889737 120.741138,30.3997743 122.43072,24.1703166 L116.81801,22.3012696 C115.619476,26.2170935 112.513487,27.759516 108.916929,27.759516 C104.530406,27.759516 100.33458,24.2594437 100.171057,19.2756679 L122.812115,19.2756679 C122.893638,18.5343404 122.920813,17.7924886 122.920813,17.0511612 C122.920813,7.29174742 117.662801,0.291078512 108.37201,0.291078512 L108.37201,0.291078512 Z M100.525278,13.8473053 C101.124545,9.39776756 104.339708,6.49065238 108.426359,6.49065238 C112.540662,6.49065238 115.946045,9.19015393 116.164394,13.8473053 L100.525278,13.8473053 Z" id="Fill-11" fill="#FEFEFE"></path>
                </g>
                <polygon id="Fill-14" fill="#FF0066" points="8.68804536 2 19.9295743 15.37113 0 15.37113 0 21.62887 19.9295743 21.62887 8.68804536 35 16.1279178 35 30 18.5 16.1279178 2"></polygon>
            </g>
        </g>
    </g>
</svg>