<?xml version="1.0" encoding="UTF-8"?>
<svg width="12px" height="21px" viewBox="0 0 12 21" version="1.1" xmlns="http://www.w3.org/2000/svg" xmlns:xlink="http://www.w3.org/1999/xlink">
    <!-- Generator: Sketch 55.2 (78181) - https://sketchapp.com -->
    <title>Group 7</title>
    <desc>Created with Sketch.</desc>
    <defs>
        <polygon id="path-1" points="1.22801905e-05 0.0146975986 11.9289908 0.0146975986 11.9289908 21 1.22801905e-05 21"></polygon>
        <polygon id="path-3" points="1.22801905e-05 0.0146975986 11.9289908 0.0146975986 11.9289908 21 1.22801905e-05 21"></polygon>
    </defs>
    <g id="Page-1" stroke="none" stroke-width="1" fill="none" fill-rule="evenodd">
        <g id="--Apply-(desktop)" transform="translate(-638.000000, -4493.000000)">
            <g id="--Join-the-Avenue-form" transform="translate(0.000000, 3179.000000)">
                <g id="Group-7" transform="translate(638.000000, 1314.000000)">
                    <g id="Group-3">
                        <mask id="mask-2" fill="white">
                            <use xlink:href="#path-1"></use>
                        </mask>
                        <g id="Clip-2"></g>
                        <path d="M10.6143413,9.8132 C10.6143413,11.5259778 10.6165431,13.2387556 10.6139009,14.9514222 C10.6089468,18.2018667 7.54366239,20.4385333 4.47826789,19.4307556 C2.62564404,18.8216444 1.31885505,16.9988667 1.31456147,14.9999778 C1.30938716,12.5836444 1.31368073,10.1674222 1.31302018,7.75097778 C1.31291009,7.28031111 1.0660844,6.9842 0.67239633,6.9772 C0.279478899,6.9702 0.00832293578,7.27186667 0.00799266055,7.73242222 C0.00623119266,10.1673111 -0.0111633028,12.6023111 0.0117357798,15.0369778 C0.045533945,18.6249778 3.16102018,21.3817556 6.6701945,20.9567556 C9.66535046,20.5938667 11.9252037,18.0267556 11.9275156,14.9779778 C11.9299376,11.5155333 11.9296073,8.05308889 11.9249835,4.59053333 C11.9246532,4.31431111 11.9058275,4.03342222 11.854745,3.76264444 C11.4130569,1.42708889 9.3274789,-0.175355556 7.01302018,0.0328666667 C4.66498349,0.243977778 2.89371743,2.20842222 2.89206606,4.60831111 C2.8901945,7.55231111 2.89118532,10.4963111 2.89272661,13.4403111 C2.8928367,13.6252 2.89074495,13.8128667 2.91936881,13.9943111 C3.17467156,15.6158667 4.59485505,16.7928667 6.15221284,16.6806444 C7.89089174,16.5554222 9.12502018,15.2502 9.13459817,13.5210889 C9.13911193,12.7064222 9.13536881,11.8917556 9.13536881,11.0769778 C9.13536881,10.1974222 9.13746055,9.31786667 9.1341578,8.43842222 C9.1328367,8.11631111 8.97078165,7.8812 8.70843303,7.79575556 C8.23052477,7.6402 7.83727706,7.94208889 7.83628624,8.4792 C7.8327633,10.1734222 7.83936881,11.8676444 7.8341945,13.5617556 C7.83111193,14.5476444 7.01962569,15.3527556 6.0368367,15.3617556 C5.04358899,15.3708667 4.19984587,14.5899778 4.19643303,13.6086444 C4.18575413,10.5720889 4.17496514,7.53531111 4.20094679,4.49886667 C4.21790092,2.49731111 6.03584587,1.01264444 7.97346055,1.36353333 C9.49382752,1.63886667 10.6092771,2.97431111 10.6132404,4.5362 C10.617644,6.2952 10.6142312,8.0542 10.6143413,9.8132" id="Fill-1" fill="#FFFFFF" mask="url(#mask-2)"></path>
                    </g>
                    <g id="Group-6">
                        <mask id="mask-4" fill="white">
                            <use xlink:href="#path-3"></use>
                        </mask>
                        <g id="Clip-5"></g>
                        <path d="M10.6143413,9.8132 C10.6142312,8.0542 10.617644,6.2952 10.6132404,4.5362 C10.6092771,2.97431111 9.49382752,1.63886667 7.97346055,1.36353333 C6.03584587,1.01264444 4.21790092,2.49731111 4.20094679,4.49886667 C4.17496514,7.53531111 4.18575413,10.5720889 4.19643303,13.6086444 C4.19984587,14.5899778 5.04358899,15.3708667 6.0368367,15.3617556 C7.01962569,15.3527556 7.83111193,14.5476444 7.8341945,13.5617556 C7.83936881,11.8676444 7.8327633,10.1734222 7.83628624,8.4792 C7.83727706,7.94208889 8.23052477,7.6402 8.70843303,7.79575556 C8.97078165,7.8812 9.1328367,8.11631111 9.1341578,8.43842222 C9.13746055,9.31786667 9.13536881,10.1974222 9.13536881,11.0769778 C9.13536881,11.8917556 9.13911193,12.7064222 9.13459817,13.5210889 C9.12502018,15.2502 7.89089174,16.5554222 6.15221284,16.6806444 C4.59485505,16.7928667 3.17467156,15.6158667 2.91936881,13.9943111 C2.89074495,13.8128667 2.8928367,13.6252 2.89272661,13.4403111 C2.89118532,10.4963111 2.8901945,7.55231111 2.89206606,4.60831111 C2.89371743,2.20842222 4.66498349,0.243977778 7.01302018,0.0328666667 C9.3274789,-0.175355556 11.4130569,1.42708889 11.854745,3.76264444 C11.9058275,4.03342222 11.9246532,4.31431111 11.9249835,4.59053333 C11.9296073,8.05308889 11.9299376,11.5155333 11.9275156,14.9779778 C11.9252037,18.0267556 9.66535046,20.5938667 6.6701945,20.9567556 C3.16102018,21.3817556 0.045533945,18.6249778 0.0117357798,15.0369778 C-0.0111633028,12.6023111 0.00623119266,10.1673111 0.00799266055,7.73242222 C0.00832293578,7.27186667 0.279478899,6.9702 0.67239633,6.9772 C1.0660844,6.9842 1.31291009,7.28031111 1.31302018,7.75097778 C1.31368073,10.1674222 1.30938716,12.5836444 1.31456147,14.9999778 C1.31885505,16.9988667 2.62564404,18.8216444 4.47826789,19.4307556 C7.54366239,20.4385333 10.6089468,18.2018667 10.6139009,14.9514222 C10.6165431,13.2387556 10.6143413,11.5259778 10.6143413,9.8132" id="Fill-4" fill="#FFFFFF" mask="url(#mask-4)"></path>
                    </g>
                </g>
            </g>
        </g>
    </g>
</svg>