<svg id="Layer_1" data-name="Layer 1" xmlns="http://www.w3.org/2000/svg" viewBox="0 0 30 24.42"><defs><style>.cls-1{fill:#f06;}</style></defs><title>What etc.</title><path class="cls-1" d="M20.22,0h.13a.15.15,0,0,0,.13,0h.85a2.45,2.45,0,0,0,.38,0,4.6,4.6,0,0,1,1.63.45,5.71,5.71,0,0,1,1.83,1.28.25.25,0,0,0,.25.08,12.57,12.57,0,0,0,2.23-.71A12.81,12.81,0,0,0,29,.48c.06,0,.11-.06.16,0a.14.14,0,0,1,0,.17,6.34,6.34,0,0,1-.52,1.12,6.57,6.57,0,0,1-1.12,1.39,6,6,0,0,1-.75.58.31.31,0,0,1-.13.06h0c.29-.07.59-.11.88-.17a13.3,13.3,0,0,0,2.22-.7c.07,0,.15-.09.2,0s0,.14,0,.2c-.23.32-.46.63-.71.92a12.53,12.53,0,0,1-1,1.06,9.83,9.83,0,0,1-1.1.93.29.29,0,0,0-.13.26v.91a16.53,16.53,0,0,1-.2,2.33,18.4,18.4,0,0,1-.71,2.93,19.5,19.5,0,0,1-1.27,2.93,18.45,18.45,0,0,1-1.88,2.82c-.3.37-.62.72-1,1.07a16.3,16.3,0,0,1-2.93,2.44,16.14,16.14,0,0,1-3.48,1.73,17.2,17.2,0,0,1-3.06.79,11.47,11.47,0,0,1-1.85.17l-1.6,0a15.89,15.89,0,0,1-4.79-.72,18.41,18.41,0,0,1-3.14-1.31c-.35-.18-.68-.38-1-.58A.44.44,0,0,1,0,21.67c0-.11.09-.09.16-.08a13.87,13.87,0,0,0,1.44.06,12,12,0,0,0,2.46-.28,12.3,12.3,0,0,0,3.06-1.1,13.81,13.81,0,0,0,1.68-1,.46.46,0,0,0,.07-.07,1.09,1.09,0,0,0-.44-.06,6.1,6.1,0,0,1-3.1-1.31,6.18,6.18,0,0,1-1.56-1.85A6.52,6.52,0,0,1,3.34,15c-.07-.2,0-.27.19-.24a5.52,5.52,0,0,0,1.15.08,6.35,6.35,0,0,0,1.15-.15,6.07,6.07,0,0,1-2.27-1.1,6.24,6.24,0,0,1-1.71-2,6.35,6.35,0,0,1-.69-2.16,5.62,5.62,0,0,1,0-.71c0-.16.08-.19.22-.12a6.29,6.29,0,0,0,2.11.64,1.08,1.08,0,0,0,.19,0h.08a6.71,6.71,0,0,1-.85-.75A6.23,6.23,0,0,1,2,7.27,5.94,5.94,0,0,1,1.22,5a7,7,0,0,1,0-1.38,6.14,6.14,0,0,1,.68-2.28l0-.06c.11-.2.19-.21.33,0l.81.9a18.26,18.26,0,0,0,2.24,2A17,17,0,0,0,7.47,5.48a17.42,17.42,0,0,0,2.85,1.21,17.25,17.25,0,0,0,3.09.69l1.09.1c.19,0,.17,0,.15-.16A6.67,6.67,0,0,1,14.54,6a6.2,6.2,0,0,1,1.91-4.31A6.06,6.06,0,0,1,19.5.07,4.91,4.91,0,0,1,20.16,0s0,0,.06,0"/></svg>