<?xml version="1.0" encoding="UTF-8"?>
<svg width="52px" height="42px" viewBox="0 0 52 42" version="1.1" xmlns="http://www.w3.org/2000/svg" xmlns:xlink="http://www.w3.org/1999/xlink">
    <!-- Generator: Sketch 54.1 (76490) - https://sketchapp.com -->
    <title>Group 3</title>
    <desc>Created with Sketch.</desc>
    <defs>
        <polygon id="path-1" points="0 0 52 0 52 42 0 42"></polygon>
    </defs>
    <g id="Symbols" stroke="none" stroke-width="1" fill="none" fill-rule="evenodd">
        <g id="Group-3" transform="translate(26.000000, 21.000000) rotate(-360.000000) translate(-26.000000, -21.000000) ">
            <mask id="mask-2" fill="white">
                <use xlink:href="#path-1"></use>
            </mask>
            <g id="Clip-2"></g>
            <path d="M16.353792,42 C35.977136,42 46.708272,25.8429259 46.708272,11.8327969 C46.708272,11.3736822 46.698912,10.9166347 46.677904,10.4620677 C48.760816,8.96565573 50.571456,7.09839648 52,4.97232968 C50.08848,5.81614151 48.031152,6.385022 45.87336,6.64155568 C48.075872,5.32912028 49.76712,3.252045 50.564592,0.776422644 C48.502688,1.990875 46.220512,2.87437616 43.790448,3.34982134 C41.843568,1.28907657 39.070928,0 36.002928,0 C30.110704,0 25.332736,4.74845702 25.332736,10.602014 C25.332736,11.4342498 25.426544,12.2431267 25.609584,13.0195494 C16.743168,12.5765585 8.88056,8.35729262 3.619408,1.94188347 C2.702336,3.50837197 2.174432,5.32912028 2.174432,7.27100375 C2.174432,10.9495024 4.05808,14.196793 6.922032,16.0965065 C5.172128,16.0429673 3.527888,15.5650415 2.089984,14.7700145 C2.087696,14.8142515 2.087696,14.8586953 2.087696,14.9052063 C2.087696,20.040841 5.765552,24.3277028 10.646896,25.2998848 C9.750832,25.5421552 8.807968,25.6730059 7.834528,25.6730059 C7.147088,25.6730059 6.478576,25.6052033 5.828992,25.4815876 C7.187024,29.6940318 11.125296,32.7594129 15.79552,32.8458199 C12.143248,35.6898089 7.543536,37.3844609 2.545088,37.3844609 C1.684176,37.3844609 0.83512,37.3354694 0,37.2374863 C4.721808,40.2447804 10.327824,42 16.353792,42" id="Fill-1" fill="#FF0066" mask="url(#mask-2)"></path>
        </g>
    </g>
</svg>