<?xml version="1.0" standalone="no"?>
<!DOCTYPE svg PUBLIC "-//W3C//DTD SVG 20010904//EN"
 "http://www.w3.org/TR/2001/REC-SVG-20010904/DTD/svg10.dtd">
<svg version="1.0" xmlns="http://www.w3.org/2000/svg"
 width="256.000000pt" height="256.000000pt" viewBox="0 0 256.000000 256.000000"
 preserveAspectRatio="xMidYMid meet">
<metadata>
Created by potrace 1.11, written by Peter Selinger 2001-2013
</metadata>
<g transform="translate(0.000000,256.000000) scale(0.100000,-0.100000)"
fill="#000000" stroke="none">
<path d="M1230 1760 c233 -229 319 -320 305 -320 -11 -1 -271 -2 -577 -2
l-558 -1 0 -152 0 -153 571 0 c314 -1 573 -3 575 -5 3 -2 -141 -146 -318 -321
l-322 -316 64 -1 c36 0 134 -1 219 -1 l153 0 62 60 c33 33 120 117 191 187 72
70 226 222 344 338 l213 212 -403 397 -404 398 -220 0 -220 0 325 -320z"/>
</g>
</svg>
